<svg width="7rem" viewBox="0 0 370.5 81.0658038424485" preserveAspectRatio="xMidYMid meet" class="css-8aabad" id="agaghcff">
    <defs id="SvgjsDefs1295"></defs>
    <g id="SvgjsG1296" featurekey="4yrtKO-0" transform="matrix(1.0246471744743062,0,0,1.0246471744743062,275.54693370337213,-10.352989049735518)" fill="#111"><title
        xmlns="http://www.w3.org/2000/svg">Mower</title>
        <g xmlns="http://www.w3.org/2000/svg" data-name="Iconos">
            <path
                d="M92.49,66c-.36-1.32-1.44-3.08-4.57-3.93A43.37,43.37,0,0,0,76.7,60.73l-1.13,0V52.51h1.36a1.5,1.5,0,0,0,1.5-1.5v-.37a6.31,6.31,0,0,0-6.3-6.3H66.57V43.5a1.5,1.5,0,0,0-1.5-1.5H57.31a1.5,1.5,0,0,0-1.5,1.5v.84H50.25a6.3,6.3,0,0,0-6.3,6.3V51a1.5,1.5,0,0,0,1.5,1.5h1.36v2.62c-6.22-1.52-11.52-2.79-13.51-3.26L28.55,34.05v0l-2.29-8.57a12.42,12.42,0,0,0-3.56-5.89,2.55,2.55,0,0,0-.3-.26,12.3,12.3,0,0,0-5.69-2.8L9.12,15a1.5,1.5,0,0,0-.58,2.94l7.58,1.5A9.25,9.25,0,0,1,19.74,21c-.49.81-1.2.93-2.61.57l-8-1.72a1.5,1.5,0,1,0-.64,2.93l7.93,1.71a7.79,7.79,0,0,0,1.94.27,4.24,4.24,0,0,0,3.49-1.62,9.27,9.27,0,0,1,1.49,3.06l1.85,7c-3,.57-8.92,2.41-10.26,8.19-.85,3.67.66,7.15,2.25,10.84s3.27,7.59,2.58,11.9c-.5,3.15.08,5.7,1.72,7.58a9.56,9.56,0,0,0,6,2.9,11.84,11.84,0,0,0,21.72,5,108.27,108.27,0,0,1,23.69,0,7.63,7.63,0,0,0,15-2.13c0-.21,0-.41,0-.61C89.24,75.22,93.6,70.07,92.49,66ZM50.25,47.34H72.13a3.31,3.31,0,0,1,3.1,2.17H47.15A3.3,3.3,0,0,1,50.25,47.34Zm-.44,5.17H72.57v8.06a55.81,55.81,0,0,1-11-1.76c-3.75-1-7.85-2-11.75-3ZM23.75,69.69c-1-1.17-1.36-2.9-1-5.12C23.57,59.4,21.65,55,20,51c-1.45-3.37-2.7-6.28-2.08-9,1-4.2,5.83-5.54,8.12-5.95L33.17,63a11.81,11.81,0,0,0-5.66,8.53A6.36,6.36,0,0,1,23.75,69.69ZM39.23,82a8.85,8.85,0,1,1,8.85-8.85A8.86,8.86,0,0,1,39.23,82Zm41,0a4.63,4.63,0,1,1,4.63-4.63A4.64,4.64,0,0,1,80.2,82Zm6.51-8.58a7.61,7.61,0,0,0-14.08,3,109.54,109.54,0,0,0-22,0,12.11,12.11,0,0,0,.46-3.26A11.83,11.83,0,0,0,36,61.8L34.2,55.17c5,1.2,17,4.07,26.62,6.55A59.71,59.71,0,0,0,74,63.65h.06l2.53.08A39.94,39.94,0,0,1,87.14,65c2.12.57,2.37,1.5,2.45,1.81C90.06,68.49,88.41,71.31,86.71,73.45Z"></path>
            <path d="M39.23,67.37A5.81,5.81,0,1,0,45,73.18,5.81,5.81,0,0,0,39.23,67.37Zm0,8.62A2.81,2.81,0,1,1,42,73.18,2.81,2.81,0,0,1,39.23,76Z"></path>
            <path d="M58.65,66.6l9.88,3a1.39,1.39,0,0,0,.44.07,1.5,1.5,0,0,0,.44-2.94l-9.89-3a1.49,1.49,0,0,0-1.87,1A1.51,1.51,0,0,0,58.65,66.6Z"></path>
            <path d="M69.23,71.27l-9.89-1.7a1.5,1.5,0,1,0-.51,3l9.89,1.71a1.06,1.06,0,0,0,.25,0,1.5,1.5,0,0,0,.26-3Z"></path>
        </g>
        <g xmlns="http://www.w3.org/2000/svg" data-name="Puntos">
            <path d="M80.43,75.09a2.31,2.31,0,0,0-2.53,2.09A2.33,2.33,0,0,0,80,79.72h.23A2.33,2.33,0,0,0,82,75.92,2.22,2.22,0,0,0,80.43,75.09Z"></path>
        </g>
    </g>
    <g id="SvgjsG1297" featurekey="Gem1BN-0" transform="matrix(2.3110244309774695,0,0,2.3110244309774695,-1.802598990043487,-15.021657699371229)" fill="#111">
        <path
            d="M0.78 20 l0 -2.32 l1.44 0 l0 -8.58 l-1.44 0 l0 -2.32 l6.34 0 l2.64 7.68 l2.62 -7.68 l6.22 0 l0 2.32 l-1.44 0 l0 8.58 l1.44 0 l0 2.32 l-6.04 0 l0 -2.32 l1.34 0 l0 -7.28 l-3.32 9.6 l-1.8 0 l-3.3 -9.54 l0 7.22 l1.34 0 l0 2.32 l-6.04 0 z M22.098 20 l0 -2.32 l1.44 0 l0 -8.58 l-1.44 0 l0 -2.32 l6.62 0 c3.66 0 4.96 1.64 4.96 3.76 c0 1.98 -1.12 3.04 -2.34 3.62 c0.52 0.28 0.9 0.8 1.24 1.74 c0.28 0.78 0.4 1.5 1.7 1.5 l0.16 0 l-0.58 2.72 c-0.28 0.04 -0.54 0.06 -0.78 0.06 c-2.52 0 -3.16 -1.82 -3.66 -3.16 c-0.58 -1.82 -0.78 -1.98 -1.9 -1.98 l-0.62 0 l0 2.64 l1.44 0 l0 2.32 l-6.24 0 z M26.897999999999996 12.52 l1.74 0 c1.22 0 1.68 -0.76 1.68 -1.54 c0 -1.22 -0.56 -1.68 -1.68 -1.68 l-1.74 0 l0 3.22 z M53.174 20 l-0.3 -1.22 c-0.74 0.94 -1.82 1.5 -3.5 1.5 c-4.02 0 -6.2 -2.8 -6.2 -6.96 c0 -4.18 2.22 -6.82 6.68 -6.82 c3.6 0 5.36 1.78 5.36 3.56 c0 0.12 0 0.26 -0.02 0.38 l-3.3 0.68 l0 -0.22 c0 -1.04 -0.7 -1.62 -2.1 -1.62 c-2.78 0 -3.08 2 -3.08 3.96 c0 2.66 0.68 4.26 3.14 4.26 c0.92 0 2.18 -0.28 2.18 -1.1 l0 -0.98 l-2.2 0 l0 -2.32 l6.34 0 l0 2.32 l-0.98 0 l0 4.58 l-2.02 0 z M59.332 20 l0 -2.32 l1.44 0 l0 -8.58 l-1.44 0 l0 -2.32 l6.62 0 c3.66 0 4.96 1.64 4.96 3.76 c0 1.98 -1.12 3.04 -2.34 3.62 c0.52 0.28 0.9 0.8 1.24 1.74 c0.28 0.78 0.4 1.5 1.7 1.5 l0.16 0 l-0.58 2.72 c-0.28 0.04 -0.54 0.06 -0.78 0.06 c-2.52 0 -3.16 -1.82 -3.66 -3.16 c-0.58 -1.82 -0.78 -1.98 -1.9 -1.98 l-0.62 0 l0 2.64 l1.44 0 l0 2.32 l-6.24 0 z M64.132 12.52 l1.74 0 c1.22 0 1.68 -0.76 1.68 -1.54 c0 -1.22 -0.56 -1.68 -1.68 -1.68 l-1.74 0 l0 3.22 z M74.28999999999999 20 l0 -2.32 l1.02 0 l3.92 -10.9 l3.08 0 l4.34 10.9 l1.04 0 l0 2.32 l-5.52 0 l0 -2.32 l1.24 0 l-0.5 -1.32 l-4.24 0 l-0.44 1.32 l1.26 0 l0 2.32 l-5.2 0 z M79.41 14.04 l2.66 0 l-1.42 -4.02 z M90.228 16.34 l3.3 -0.68 c0.02 1.4 1.1 1.84 2.2 1.84 c1.04 0 1.64 -0.38 1.64 -1 c0 -2.1 -6.78 -1.14 -6.78 -5.94 c0 -2.64 2.04 -4.06 5.1 -4.06 c3 0 4.92 1.4 4.92 3.42 l0 0.16 l-3.3 0.68 c-0.02 -0.54 -0.14 -1.48 -1.7 -1.48 c-1.08 0 -1.62 0.44 -1.62 1.04 c0 2.18 6.78 1.04 6.78 5.82 c0 2.4 -1.7 4.14 -5.08 4.14 c-3.5 0 -5.46 -1.84 -5.46 -3.76 l0 -0.18 z  M103.826 16.34 l3.3 -0.68 c0.02 1.4 1.1 1.84 2.2 1.84 c1.04 0 1.64 -0.38 1.64 -1 c0 -2.1 -6.78 -1.14 -6.78 -5.94 c0 -2.64 2.04 -4.06 5.1 -4.06 c3 0 4.92 1.4 4.92 3.42 l0 0.16 l-3.3 0.68 c-0.02 -0.54 -0.14 -1.48 -1.7 -1.48 c-1.08 0 -1.62 0.44 -1.62 1.04 c0 2.18 6.78 1.04 6.78 5.82 c0 2.4 -1.7 4.14 -5.08 4.14 c-3.5 0 -5.46 -1.84 -5.46 -3.76 l0 -0.18 z "></path>
    </g>
    <g id="SvgjsG1298" featurekey="Gem1BN-1" transform="matrix(2.84614540220838,0,0,2.84614540220838,-2.2199933322936634,23.500056242793416)" fill="#111">
        <path
            d="M0.78 20 l0 -2.32 l1.44 0 l0 -8.58 l-1.44 0 l0 -2.32 l6.34 0 l2.64 7.68 l2.62 -7.68 l6.22 0 l0 2.32 l-1.44 0 l0 8.58 l1.44 0 l0 2.32 l-6.04 0 l0 -2.32 l1.34 0 l0 -7.28 l-3.32 9.6 l-1.8 0 l-3.3 -9.54 l0 7.22 l1.34 0 l0 2.32 l-6.04 0 z M21.618 20 l0 -2.32 l1.02 0 l3.92 -10.9 l3.08 0 l4.34 10.9 l1.04 0 l0 2.32 l-5.52 0 l0 -2.32 l1.24 0 l-0.5 -1.32 l-4.24 0 l-0.44 1.32 l1.26 0 l0 2.32 l-5.2 0 z M26.738 14.04 l2.66 0 l-1.42 -4.02 z M37.556 16.34 l3.3 -0.68 c0.02 1.4 1.1 1.84 2.2 1.84 c1.04 0 1.64 -0.38 1.64 -1 c0 -2.1 -6.78 -1.14 -6.78 -5.94 c0 -2.64 2.04 -4.06 5.1 -4.06 c3 0 4.92 1.4 4.92 3.42 l0 0.16 l-3.3 0.68 c-0.02 -0.54 -0.14 -1.48 -1.7 -1.48 c-1.08 0 -1.62 0.44 -1.62 1.04 c0 2.18 6.78 1.04 6.78 5.82 c0 2.4 -1.7 4.14 -5.08 4.14 c-3.5 0 -5.46 -1.84 -5.46 -3.76 l0 -0.18 z  M54.074 20 l0 -2.32 l1.44 0 l0 -8.38 l-2.02 0 l0 2.04 l-2.52 0 l0 -4.56 l12.44 0 l0 4.56 l-2.52 0 l0 -2.04 l-2.02 0 l0 8.38 l1.44 0 l0 2.32 l-6.24 0 z M66.432 20 l0 -2.32 l1.48 0 l0 -8.58 l-1.48 0 l0 -2.32 l10.56 0 l0 4.26 l-2.52 0 l0 -1.74 l-3.22 0 l0 2.78 l3.78 0 l0 2.52 l-3.78 0 l0 2.88 l3.34 0 l0 -1.94 l2.52 0 l0 4.46 l-10.68 0 z M80.67 20 l0 -2.32 l1.44 0 l0 -8.58 l-1.44 0 l0 -2.32 l6.62 0 c3.66 0 4.96 1.64 4.96 3.76 c0 1.98 -1.12 3.04 -2.34 3.62 c0.52 0.28 0.9 0.8 1.24 1.74 c0.28 0.78 0.4 1.5 1.7 1.5 l0.16 0 l-0.58 2.72 c-0.28 0.04 -0.54 0.06 -0.78 0.06 c-2.52 0 -3.16 -1.82 -3.66 -3.16 c-0.58 -1.82 -0.78 -1.98 -1.9 -1.98 l-0.62 0 l0 2.64 l1.44 0 l0 2.32 l-6.24 0 z M85.47 12.52 l1.74 0 c1.22 0 1.68 -0.76 1.68 -1.54 c0 -1.22 -0.56 -1.68 -1.68 -1.68 l-1.74 0 l0 3.22 z"></path>
    </g>
</svg>
